<svg fill="none" height="24" viewBox="0 0 24 24" width="24" xmlns="http://www.w3.org/2000/svg"><path clip-rule="evenodd" d="m2.75 3c-.9665 0-1.75.7835-1.75 1.75v12.5c0 .9665.7835 1.75 1.75 1.75h5.175c2.3419 0 3.325 1.1906 3.325 2.25 0 .4142.3358.75.75.75s.75-.3358.75-.75c0-1.0594.9831-2.25 3.325-2.25h5.175c.9665 0 1.75-.7835 1.75-1.75v-12.5c0-.9665-.7835-1.75-1.75-1.75h-5.15c-1.6999 0-2.9582.50464-3.7766 1.43877-.1193.1361-.2268.27864-.3234.42658-.0966-.14794-.2041-.29048-.3234-.42658-.8184-.93413-2.07666-1.43877-3.7766-1.43877zm10 15.4428c.8446-.5977 1.9962-.9428 3.325-.9428h5.175c.1381 0 .25-.1119.25-.25v-12.5c0-.13807-.1119-.25-.25-.25h-5.15c-1.4001 0-2.1918.40602-2.6484.92723-.4729.53986-.7016 1.33346-.7016 2.32277zm-1.5 0v-10.6928c0-.98931-.2287-1.78291-.7016-2.32277-.4566-.52121-1.24834-.92723-2.6484-.92723h-5.15c-.13807 0-.25.11193-.25.25v12.5c0 .1381.11193.25.25.25h5.175c1.32879 0 2.4804.3451 3.325.9428z" fill="#000001" fill-rule="evenodd"/></svg>